# xmcd CD database file
#
# Track frame offsets:
#	151
#	15829
#	30488
#	45816
#	59800
#	78802
#	96673
#	117589
#	138517
#	154955
#	171110
#	187467
#	200992
#	215639
#	229684
#
# Disc length: 3280 seconds
#
# Revision: 10
# Processed by: cddbd v1.5.2PL0 Copyright (c) Steve Scherf et al.
# Submitted via: CDex 1.50
#
DISCID=d90cce0f
DTITLE=melua, katie - piece by piece
DYEAR=2006
DGENRE=Jazz
TTITLE0=melua, katie - shy boy
TTITLE1=melua, katie - nine million bicycles
TTITLE2=melua, katie - piece by piece
TTITLE3=melua, katie - halfway up the hindu kush
TTITLE4=melua, katie - blues in the night
TTITLE5=melua, katie - spider's web
TTITLE6=melua, katie - blue shoes
TTITLE7=melua, katie - on the road again
TTITLE8=melua, katie - thankyou, stars
TTITLE9=melua, katie - just like heaven
TTITLE10=melua, katie - i cried for you
TTITLE11=melua, katie - i do believe in love
TTITLE12=melua, katie - it's only pain
TTITLE13=melua, katie - lucy in the sky with diamonds (acoustic version)
TTITLE14=melua, katie - sometimes when i'm dreaming
EXTD=Special Bonus Edition With 3 Extra Tracks And Bonus DVD.\r\nDRAMDVCD0002 YEAR: 2006
EXTT0=
EXTT1=
EXTT2=
EXTT3=
EXTT4=
EXTT5=
EXTT6=
EXTT7=
EXTT8=
EXTT9=
EXTT10=
EXTT11=
EXTT12=
EXTT13=
EXTT14=
PLAYORDER=
